<svg xmlns="http://www.w3.org/2000/svg" viewBox="0 0 64 64" role="img" aria-label="Hikikae daruma">
  <defs>
    <linearGradient id="body" x1="12" y1="8" x2="52" y2="58" gradientUnits="userSpaceOnUse">
      <stop offset="0" stop-color="#ff7a66"/>
      <stop offset="0.52" stop-color="#ef3f45"/>
      <stop offset="1" stop-color="#b81e34"/>
    </linearGradient>
    <linearGradient id="gold" x1="18" y1="42" x2="48" y2="60" gradientUnits="userSpaceOnUse">
      <stop offset="0" stop-color="#fff0a8"/>
      <stop offset="1" stop-color="#f5b642"/>
    </linearGradient>
  </defs>
  <path d="M32 4c13.6 0 23.5 12.9 23.5 30.1 0 15.9-9.3 25.9-23.5 25.9S8.5 50 8.5 34.1C8.5 16.9 18.4 4 32 4Z" fill="url(#body)" stroke="#fff5d7" stroke-width="4" stroke-linejoin="round"/>
  <path d="M18.4 27.8c1.2-9 6.2-14.5 13.6-14.5s12.4 5.5 13.6 14.5c-3.1 4.1-7.6 6.1-13.6 6.1s-10.5-2-13.6-6.1Z" fill="#fff8df" stroke="#6f2c2c" stroke-width="2"/>
  <circle cx="25.1" cy="25.5" r="3.1" fill="#172033"/>
  <circle cx="38.9" cy="25.5" r="3.1" fill="#172033"/>
  <circle cx="26.1" cy="24.3" r="0.9" fill="#fff"/>
  <circle cx="39.9" cy="24.3" r="0.9" fill="#fff"/>
  <path d="M23.6 19.3c3-2 5.6-2 8 .2M40.4 19.3c-3-2-5.6-2-8 .2" fill="none" stroke="#172033" stroke-width="2.6" stroke-linecap="round"/>
  <path d="M27.1 31.2c2.5 1.6 7.3 1.6 9.8 0" fill="none" stroke="#d64045" stroke-width="2.2" stroke-linecap="round"/>
  <path d="M18 43.6c4.1 4.4 8.7 6.6 14 6.6s9.9-2.2 14-6.6v8.8C42.4 56 37.7 58 32 58s-10.4-2-14-5.6v-8.8Z" fill="url(#gold)" stroke="#fff5d7" stroke-width="2"/>
  <path d="M24 44.6h16" stroke="#8f5a22" stroke-width="2.8" stroke-linecap="round"/>
  <path d="M21.4 39.5c3.3 1.8 6.8 2.7 10.6 2.7s7.3-.9 10.6-2.7" fill="none" stroke="#fff5d7" stroke-width="2.4" stroke-linecap="round" opacity="0.8"/>
</svg>
