<svg xmlns="http://www.w3.org/2000/svg" viewBox="0 0 64 64" role="img" aria-label="G daruma">
  <defs>
    <linearGradient id="body" x1="12" y1="6" x2="52" y2="60" gradientUnits="userSpaceOnUse">
      <stop offset="0" stop-color="#ff8a72"/>
      <stop offset="0.48" stop-color="#e83f45"/>
      <stop offset="1" stop-color="#a91d30"/>
    </linearGradient>
    <linearGradient id="gold" x1="18" y1="37" x2="50" y2="62" gradientUnits="userSpaceOnUse">
      <stop offset="0" stop-color="#fff4b8"/>
      <stop offset="0.54" stop-color="#f5b642"/>
      <stop offset="1" stop-color="#c97918"/>
    </linearGradient>
    <radialGradient id="shine" cx="32%" cy="18%" r="52%">
      <stop offset="0" stop-color="#fff" stop-opacity=".9"/>
      <stop offset=".34" stop-color="#fff" stop-opacity=".22"/>
      <stop offset="1" stop-color="#fff" stop-opacity="0"/>
    </radialGradient>
  </defs>
  <path d="M32 4.2c13.8 0 23.7 12.9 23.7 30.2C55.7 50.3 46.3 60 32 60S8.3 50.3 8.3 34.4C8.3 17.1 18.2 4.2 32 4.2Z" fill="url(#body)" stroke="#fff6d8" stroke-width="4" stroke-linejoin="round"/>
  <path d="M17.8 27.5c1.2-8.8 6.4-14.2 14.2-14.2s13 5.4 14.2 14.2c-3.2 4.1-7.9 6.2-14.2 6.2s-11-2.1-14.2-6.2Z" fill="#fff8df" stroke="#6f2c2c" stroke-width="2"/>
  <path d="M22.6 19.4c2.8-2.1 5.8-2 8.6.2M41.4 19.4c-2.8-2.1-5.8-2-8.6.2" fill="none" stroke="#172033" stroke-width="2.7" stroke-linecap="round"/>
  <circle cx="25.3" cy="25.3" r="3.2" fill="#172033"/>
  <circle cx="38.7" cy="25.3" r="3.2" fill="#172033"/>
  <circle cx="26.3" cy="24" r=".9" fill="#fff"/>
  <circle cx="39.7" cy="24" r=".9" fill="#fff"/>
  <path d="M27.2 31.2c2.7 1.7 6.9 1.7 9.6 0" fill="none" stroke="#d64045" stroke-width="2.2" stroke-linecap="round"/>
  <path d="M16.8 40.7c4.6 4.4 9.7 6.6 15.2 6.6s10.6-2.2 15.2-6.6v12.2C43.4 57.5 38.3 60 32 60s-11.4-2.5-15.2-7.1V40.7Z" fill="url(#gold)" stroke="#fff6d8" stroke-width="2"/>
  <circle cx="32" cy="48.5" r="9.3" fill="#fff2a6" stroke="#9f5a00" stroke-width="2"/>
  <path d="M36.8 45.2c-1.2-1.5-3-2.3-5.1-2.3-3.5 0-6 2.4-6 5.7 0 3.5 2.6 5.9 6.3 5.9 2.2 0 4.1-.8 5.2-2.2v-4.6h-5.6v2.4h2.8v.9c-.6.5-1.4.8-2.4.8-2 0-3.4-1.3-3.4-3.2s1.4-3.2 3.4-3.2c1.1 0 2 .4 2.8 1.3l2-1.5Z" fill="#8f5a22"/>
  <path d="M13.8 14.7c5.8-7.8 22.5-10.3 33.5-.3" fill="url(#shine)" opacity=".72"/>
</svg>
