<svg xmlns="http://www.w3.org/2000/svg" viewBox="0 0 760 220" role="img" aria-label="ぐんもじぱずる">
  <defs>
    <linearGradient id="logoFill" x1="92" y1="32" x2="668" y2="188" gradientUnits="userSpaceOnUse">
      <stop offset="0" stop-color="#fffdf2"/>
      <stop offset="0.46" stop-color="#fff1a8"/>
      <stop offset="1" stop-color="#ff8f67"/>
    </linearGradient>
    <linearGradient id="logoRibbon" x1="36" y1="38" x2="720" y2="190" gradientUnits="userSpaceOnUse">
      <stop offset="0" stop-color="#2fb8d8"/>
      <stop offset="0.54" stop-color="#ef5d50"/>
      <stop offset="1" stop-color="#f5b642"/>
    </linearGradient>
    <filter id="logoShadow" x="-8%" y="-18%" width="116%" height="140%">
      <feDropShadow dx="0" dy="10" stdDeviation="8" flood-color="#162235" flood-opacity="0.34"/>
    </filter>
  </defs>
  <path d="M62 126c74-68 135-86 188-54 55 34 98 32 150-8 58-44 121-34 189 30 45 43 82 51 111 24l-19 62H83L62 126Z" fill="url(#logoRibbon)" opacity="0.92"/>
  <path d="M88 48h584c24 0 44 20 44 44v36c0 24-20 44-44 44H88c-24 0-44-20-44-44V92c0-24 20-44 44-44Z" fill="#162235" opacity="0.38"/>
  <g filter="url(#logoShadow)">
    <circle cx="103" cy="82" r="23" fill="#fff1a8" stroke="#162235" stroke-width="8"/>
    <rect x="622" y="48" width="54" height="54" rx="14" fill="#fff1a8" stroke="#162235" stroke-width="8" transform="rotate(10 649 75)"/>
    <text x="380" y="130" text-anchor="middle"
      font-family="'Yu Gothic', 'Hiragino Sans', Meiryo, sans-serif"
      font-size="82"
      font-weight="900"
      fill="url(#logoFill)"
      stroke="#162235"
      stroke-width="18"
      stroke-linejoin="round"
      paint-order="stroke">ぐんもじぱずる</text>
    <text x="380" y="130" text-anchor="middle"
      font-family="'Yu Gothic', 'Hiragino Sans', Meiryo, sans-serif"
      font-size="82"
      font-weight="900"
      fill="url(#logoFill)">ぐんもじぱずる</text>
  </g>
  <g fill="#fffaf1" opacity="0.9">
    <circle cx="98" cy="152" r="7"/>
    <circle cx="674" cy="144" r="6"/>
    <path d="M145 39l17 11-16 12-17-11 16-12Z"/>
    <path d="M580 164l18 10-17 13-18-10 17-13Z"/>
  </g>
</svg>
